REM DIRINDEX 1\2,1\4,1\5,1\6,1\7,1\3\8,1\3\9,1\3\10
REM DIRNAME cjc113,folder01,folder02,folder03,folder04,folder05,folder06,folder07,folder08,folder09
TITLE ""
FILE "DB4500_5th_1A_17.mp3" MP3
  TRACK 01 AUDIO
    TITLE "8:cjc113_0673"
    INDEX 01 00:00:00
  TRACK 02 AUDIO
    TITLE "0:"
    INDEX 01 00:01:40
  TRACK 03 AUDIO
    TITLE "9:cjc113_0674"
    INDEX 01 00:01:60
  TRACK 04 AUDIO
    TITLE "0:"
    INDEX 01 00:03:15
  TRACK 05 AUDIO
    TITLE "10:cjc113_0675"
    INDEX 01 00:03:37
  TRACK 06 AUDIO
    TITLE "0:"
    INDEX 01 00:06:41
  TRACK 07 AUDIO
    TITLE "8:cjc113_0676"
    INDEX 01 00:07:13
  TRACK 08 AUDIO
    TITLE "0:"
    INDEX 01 00:08:34
  TRACK 09 AUDIO
    TITLE "9:cjc113_0677"
    INDEX 01 00:08:58
  TRACK 10 AUDIO
    TITLE "0:"
    INDEX 01 00:09:61
  TRACK 11 AUDIO
    TITLE "10:cjc113_0678"
    INDEX 01 00:10:04
  TRACK 12 AUDIO
    TITLE "0:"
    INDEX 01 00:13:02
  TRACK 13 AUDIO
    TITLE "8:cjc113_0679"
    INDEX 01 00:13:47
  TRACK 14 AUDIO
    TITLE "0:"
    INDEX 01 00:14:53
  TRACK 15 AUDIO
    TITLE "9:cjc113_0680"
    INDEX 01 00:15:01
  TRACK 16 AUDIO
    TITLE "0:"
    INDEX 01 00:16:16
  TRACK 17 AUDIO
    TITLE "10:cjc113_0681"
    INDEX 01 00:16:38
  TRACK 18 AUDIO
    TITLE "0:"
    INDEX 01 00:18:70
  TRACK 19 AUDIO
    TITLE "8:cjc113_0682"
    INDEX 01 00:19:42
  TRACK 20 AUDIO
    TITLE "0:"
    INDEX 01 00:20:49
  TRACK 21 AUDIO
    TITLE "9:cjc113_0683"
    INDEX 01 00:20:71
  TRACK 22 AUDIO
    TITLE "0:"
    INDEX 01 00:21:64
  TRACK 23 AUDIO
    TITLE "10:cjc113_0684"
    INDEX 01 00:22:13
  TRACK 24 AUDIO
    TITLE "0:"
    INDEX 01 00:24:61
  TRACK 25 AUDIO
    TITLE "8:cjc113_0685"
    INDEX 01 00:25:35
  TRACK 26 AUDIO
    TITLE "0:"
    INDEX 01 00:26:58
  TRACK 27 AUDIO
    TITLE "9:cjc113_0686"
    INDEX 01 00:27:06
  TRACK 28 AUDIO
    TITLE "0:"
    INDEX 01 00:28:17
  TRACK 29 AUDIO
    TITLE "10:cjc113_0687"
    INDEX 01 00:28:37
  TRACK 30 AUDIO
    TITLE "0:"
    INDEX 01 00:30:44
  TRACK 31 AUDIO
    TITLE "8:cjc113_0688"
    INDEX 01 00:31:12
  TRACK 32 AUDIO
    TITLE "0:"
    INDEX 01 00:32:17
  TRACK 33 AUDIO
    TITLE "9:cjc113_0689"
    INDEX 01 00:32:39
  TRACK 34 AUDIO
    TITLE "0:"
    INDEX 01 00:33:34
  TRACK 35 AUDIO
    TITLE "10:cjc113_0690"
    INDEX 01 00:33:58
  TRACK 36 AUDIO
    TITLE "0:"
    INDEX 01 00:36:36
  TRACK 37 AUDIO
    TITLE "10:cjc113_0691"
    INDEX 01 00:37:08
  TRACK 38 AUDIO
    TITLE "0:"
    INDEX 01 00:39:58
  TRACK 39 AUDIO
    TITLE "8:cjc113_0692"
    INDEX 01 00:40:38
  TRACK 40 AUDIO
    TITLE "0:"
    INDEX 01 00:41:44
  TRACK 41 AUDIO
    TITLE "9:cjc113_0693"
    INDEX 01 00:41:61
  TRACK 42 AUDIO
    TITLE "0:"
    INDEX 01 00:44:60
  TRACK 43 AUDIO
    TITLE "10:cjc113_0694"
    INDEX 01 00:45:00
  TRACK 44 AUDIO
    TITLE "0:"
    INDEX 01 00:49:43
  TRACK 45 AUDIO
    TITLE "8:cjc113_0695"
    INDEX 01 00:50:11
  TRACK 46 AUDIO
    TITLE "0:"
    INDEX 01 00:51:28
  TRACK 47 AUDIO
    TITLE "9:cjc113_0696"
    INDEX 01 00:51:46
  TRACK 48 AUDIO
    TITLE "0:"
    INDEX 01 00:54:40
  TRACK 49 AUDIO
    TITLE "10:cjc113_0697"
    INDEX 01 00:54:54
  TRACK 50 AUDIO
    TITLE "0:"
    INDEX 01 00:57:58
  TRACK 51 AUDIO
    TITLE "8:cjc113_0698"
    INDEX 01 00:58:24
  TRACK 52 AUDIO
    TITLE "0:"
    INDEX 01 00:59:43
  TRACK 53 AUDIO
    TITLE "9:cjc113_0699"
    INDEX 01 00:59:61
  TRACK 54 AUDIO
    TITLE "0:"
    INDEX 01 01:02:34
  TRACK 55 AUDIO
    TITLE "10:cjc113_0700"
    INDEX 01 01:02:54
  TRACK 56 AUDIO
    TITLE "0:"
    INDEX 01 01:05:58
  TRACK 57 AUDIO
    TITLE "8:cjc113_0701"
    INDEX 01 01:06:26
  TRACK 58 AUDIO
    TITLE "0:"
    INDEX 01 01:07:59
  TRACK 59 AUDIO
    TITLE "9:cjc113_0702"
    INDEX 01 01:08:03
  TRACK 60 AUDIO
    TITLE "0:"
    INDEX 01 01:10:55
  TRACK 61 AUDIO
    TITLE "10:cjc113_0703"
    INDEX 01 01:10:73
  TRACK 62 AUDIO
    TITLE "0:"
    INDEX 01 01:14:43
  TRACK 63 AUDIO
    TITLE "8:cjc113_0704"
    INDEX 01 01:15:11
  TRACK 64 AUDIO
    TITLE "0:"
    INDEX 01 01:16:32
  TRACK 65 AUDIO
    TITLE "9:cjc113_0705"
    INDEX 01 01:16:52
  TRACK 66 AUDIO
    TITLE "0:"
    INDEX 01 01:19:17
  TRACK 67 AUDIO
    TITLE "10:cjc113_0706"
    INDEX 01 01:19:34
  TRACK 68 AUDIO
    TITLE "0:"
    INDEX 01 01:22:25
  TRACK 69 AUDIO
    TITLE "8:cjc113_0707"
    INDEX 01 01:22:72
  TRACK 70 AUDIO
    TITLE "0:"
    INDEX 01 01:24:16
  TRACK 71 AUDIO
    TITLE "9:cjc113_0708"
    INDEX 01 01:24:36
  TRACK 72 AUDIO
    TITLE "0:"
    INDEX 01 01:27:10
  TRACK 73 AUDIO
    TITLE "10:cjc113_0709"
    INDEX 01 01:27:28
  TRACK 74 AUDIO
    TITLE "0:"
    INDEX 01 01:30:07
